<?xml version="1.0" encoding="iso-8859-1"?>
<svg version="1.1" id="Capa_1" xmlns="http://www.w3.org/2000/svg" xmlns:xlink="http://www.w3.org/1999/xlink" x="0px" y="0px"
	 viewBox="0 0 511.998 511.998" style="enable-background:new 0 0 511.998 511.998;" xml:space="preserve">
<g>
	<path style="fill:#14A085;" d="M255.994,141.24c-78.005,0-141.241,63.236-141.241,141.241s63.236,141.241,141.241,141.241
		s141.241-63.236,141.241-141.241c0.01-37.463-14.867-73.394-41.357-99.884S293.456,141.23,255.994,141.24z M255.994,388.413
		c-58.504,0-105.931-47.427-105.931-105.931s47.427-105.931,105.931-105.931s105.931,47.427,105.931,105.931
		c0.008,28.097-11.15,55.045-31.018,74.913C311.039,377.263,284.091,388.421,255.994,388.413z"/>
	<path style="fill:#24AE5F;" d="M496.192,405.627l-0.265-0.088c15.028-35.051,11.379-75.315-9.706-107.093
		c-21.085-31.778-56.765-50.79-94.901-50.567c-3.001,0-5.914,0.177-8.916,0.441c-8.764,0.682-17.417,2.4-25.777,5.12
		c-26.523,8.632-48.912,26.776-62.852,50.935c-0.024,0-0.046,0.009-0.063,0.025s-0.026,0.039-0.025,0.063v0.088
		c-13.747,23.768-18.331,51.741-12.888,78.654c1.826,9.053,4.731,17.856,8.651,26.218c1.059,2.207,2.207,4.502,3.443,6.709
		c17.938,32.351,50.549,53.901,87.343,57.717s73.133-10.581,97.33-38.561l0.353,0.265c-46.61,61.352-129.766,81.39-194.737,43.961
		c-9.886-5.695-19.02-12.605-27.189-20.568c-8.152,7.984-17.289,14.896-27.189,20.568c-64.883,37.429-147.95,17.39-194.648-43.785
		l0.353-0.353c24.24,27.917,60.571,42.258,97.343,38.426c36.773-3.832,69.366-25.356,87.33-57.67
		c1.148-2.207,2.295-4.502,3.354-6.709c3.921-8.362,6.825-17.164,8.651-26.218c5.486-26.911,0.9-54.901-12.888-78.654v-0.088
		c0-0.024-0.009-0.046-0.025-0.063c-0.017-0.017-0.039-0.026-0.063-0.025c-13.94-24.159-36.329-42.303-62.852-50.935
		c-8.36-2.72-17.012-4.438-25.777-5.12c-3.001-0.265-5.826-0.441-8.916-0.441c-9.884-0.059-19.735,1.157-29.308,3.619
		c-31.855,8.419-58.473,30.275-72.929,59.883s-15.321,64.039-2.37,94.335l-0.177,0.088
		c-34.692-72.739-11.034-159.161,56.143-197.915c9.826-5.758,20.361-10.209,31.338-13.241c-2.841-11.075-4.265-22.465-4.237-33.898
		c0-76.27,60.999-139.123,139.476-147.156v0.353c-55.191,8.557-95.896,56.083-95.868,111.934
		c-0.081,19.89,5.194,39.436,15.272,56.585c1.492,2.714,3.143,5.337,4.943,7.857c4.914,7.16,10.663,13.709,17.126,19.509
		c43.069,39.077,108.766,39.077,151.834,0c6.462-5.8,12.211-12.349,17.126-19.509c1.801-2.519,3.452-5.143,4.943-7.857
		c10.077-17.149,15.353-36.694,15.272-56.585c0.029-55.85-40.676-103.377-95.868-111.934l0.088-0.353
		C351.95,21.715,412.86,84.479,412.86,160.749c0.028,11.433-1.396,22.823-4.237,33.898c11,3.048,21.562,7.498,31.426,13.241
		C507.227,246.642,530.708,332.887,496.192,405.627z"/>
</g>
<g>
</g>
<g>
</g>
<g>
</g>
<g>
</g>
<g>
</g>
<g>
</g>
<g>
</g>
<g>
</g>
<g>
</g>
<g>
</g>
<g>
</g>
<g>
</g>
<g>
</g>
<g>
</g>
<g>
</g>
</svg>
